<svg width="64" height="64" viewBox="0 0 64 64" fill="none" xmlns="http://www.w3.org/2000/svg">
  <circle cx="32" cy="32" r="30" fill="#2775CA" />
  <circle cx="32" cy="32" r="21" stroke="white" stroke-width="3" />
  <path d="M36.9 28.1C36.9 26.5 35.6 25.5 33.3 25.2V22H30.8V25.1C28.4 25.4 26.8 26.9 26.8 29C26.8 31.2 28.2 32.3 31.1 33L32.6 33.4C34.3 33.8 34.9 34.3 34.9 35.2C34.9 36.3 33.9 37 32.2 37C30.4 37 29.1 36.3 28.7 34.8L26.1 35.4C26.7 37.9 28.6 39.3 30.8 39.7V42H33.3V39.8C36 39.5 37.8 37.9 37.8 35.5C37.8 33.1 36.5 31.9 33.5 31.1L32.1 30.8C30.5 30.4 29.7 29.9 29.7 29C29.7 28 30.6 27.3 32.1 27.3C33.7 27.3 34.8 28 35.2 29.3L36.9 28.1Z" fill="white" />
  <path d="M22 24C20 26.2 18.8 29.1 18.8 32C18.8 34.9 20 37.8 22 40" stroke="white" stroke-width="2.4" stroke-linecap="round" />
  <path d="M42 24C44 26.2 45.2 29.1 45.2 32C45.2 34.9 44 37.8 42 40" stroke="white" stroke-width="2.4" stroke-linecap="round" />
</svg>
